<?xml version="1.0" standalone="no"?>
<!DOCTYPE svg PUBLIC "-//W3C//DTD SVG 20010904//EN"
 "http://www.w3.org/TR/2001/REC-SVG-20010904/DTD/svg10.dtd">
<svg version="1.0" xmlns="http://www.w3.org/2000/svg"
 width="225.000000pt" height="225.000000pt" viewBox="0 0 225.000000 225.000000"
 preserveAspectRatio="xMidYMid meet">

<g transform="translate(0.000000,225.000000) scale(0.100000,-0.100000)"
fill="#000000" stroke="none">
<path d="M1022 2193 c-12 -2 -20 -7 -18 -11 2 -4 -20 -7 -49 -8 -45 0 -61 -7
-116 -45 -62 -44 -64 -46 -64 -90 0 -37 -3 -44 -21 -47 -13 -2 -21 3 -21 12 0
8 4 13 9 10 4 -3 8 0 8 6 0 6 5 8 10 5 12 -8 13 5 0 25 -7 12 -14 12 -43 2
-18 -7 -45 -12 -60 -12 -29 0 -33 -7 -16 -30 9 -12 10 -11 4 5 -5 16 -4 18 6
8 7 -7 27 -13 44 -14 23 0 26 -2 12 -8 -10 -4 -17 -11 -15 -16 2 -6 -17 -15
-41 -21 -26 -6 -40 -13 -33 -18 8 -4 1 -17 -21 -36 l-32 -29 32 -1 c22 0 33 5
36 18 4 14 5 14 6 1 1 -13 10 -16 44 -13 129 10 165 11 182 1 10 -5 31 -12 46
-13 22 -3 27 0 23 11 -4 9 0 15 10 15 9 0 16 5 16 10 0 6 8 10 18 11 11 1 9 4
-8 9 -23 7 -23 8 -3 9 24 1 40 17 22 23 -5 2 -7 11 -3 21 4 12 13 16 25 12 14
-5 20 0 25 19 3 15 14 26 27 28 17 2 23 11 25 36 3 31 4 32 53 32 31 0 48 4
44 10 -7 12 8 14 19 3 4 -5 40 -8 79 -8 64 0 70 2 57 15 -15 16 -53 22 -44 8
3 -4 1 -8 -5 -8 -5 0 -18 -3 -28 -7 -16 -6 -16 -5 -5 10 20 24 7 36 -37 31
-22 -2 -56 3 -76 12 -20 8 -46 12 -57 8 -14 -4 -18 -2 -14 5 7 11 -8 12 -52 4z
m-124 -94 c-2 -6 -8 -10 -13 -10 -5 0 -11 4 -13 10 -2 6 4 11 13 11 9 0 15 -5
13 -11z m64 -21 c-9 -9 -12 -7 -12 12 0 19 3 21 12 12 9 -9 9 -15 0 -24z m38
-38 c0 -5 -4 -10 -10 -10 -5 0 -10 5 -10 10 0 6 5 10 10 10 6 0 10 -4 10 -10z
m-110 -70 c0 -5 -7 -7 -15 -4 -8 4 -12 10 -9 15 6 11 24 2 24 -11z"/>
<path d="M1350 2144 c0 -11 29 -34 44 -34 14 0 32 18 25 24 -8 6 -69 15 -69
10z"/>
<path d="M1425 2112 c-3 -3 -5 -18 -5 -34 0 -20 5 -28 18 -28 12 0 14 -2 4 -8
-8 -5 -10 -16 -6 -27 6 -14 4 -17 -9 -12 -13 5 -17 1 -17 -16 0 -12 -11 -43
-24 -70 -25 -47 -28 -92 -12 -150 13 -45 -1 -94 -28 -101 -28 -7 -67 -79 -68
-126 -1 -28 -3 -30 -40 -30 -21 0 -38 -3 -38 -8 0 -4 -22 -17 -50 -30 -44 -20
-50 -27 -50 -52 0 -23 -5 -30 -19 -30 -33 0 -71 19 -71 35 0 21 -23 19 -112
-12 -68 -24 -78 -30 -92 -62 -13 -31 -12 -10 1 26 2 6 -5 14 -16 18 -17 5 -21
15 -21 46 0 45 -6 47 -56 19 -20 -12 -39 -19 -41 -16 -3 3 -13 -3 -22 -14 -9
-10 -34 -28 -56 -39 -34 -18 -40 -19 -48 -6 -4 9 -5 24 -2 35 9 28 -25 44 -53
24 -12 -8 -19 -21 -16 -28 3 -8 0 -17 -6 -21 -6 -3 -9 -1 -8 6 2 9 -8 13 -29
13 -29 0 -31 2 -18 16 8 9 15 22 15 28 0 7 3 11 8 10 4 0 15 2 25 6 19 9 23
26 6 26 -6 0 -20 10 -31 23 -11 12 -17 16 -13 9 13 -25 -4 -57 -36 -69 -28
-11 -34 -10 -45 5 -7 9 -14 21 -14 26 0 6 -5 5 -11 -1 -16 -16 12 -52 106
-139 28 -26 43 -44 34 -41 -14 4 -15 -2 -7 -51 5 -32 13 -69 19 -83 8 -20 6
-39 -7 -78 -14 -45 -15 -63 -5 -140 10 -77 29 -151 56 -215 7 -17 5 -18 -21
-13 -16 3 -36 8 -45 12 -15 6 -49 -17 -49 -33 0 -4 12 -8 26 -9 16 0 43 -18
70 -44 31 -31 44 -38 44 -26 0 23 16 21 43 -4 18 -18 19 -20 3 -11 -27 14 -41
-4 -44 -53 l-2 -40 20 24 c17 20 25 22 51 15 28 -8 33 -16 53 -85 31 -108 63
-155 173 -259 74 -68 119 -101 182 -133 81 -40 89 -42 176 -42 86 0 93 2 142
33 29 19 92 77 141 129 81 87 91 94 111 84 23 -13 27 -32 11 -61 -15 -28 -3
-48 37 -61 32 -10 34 -14 29 -43 -7 -35 28 -117 53 -124 9 -3 6 7 -9 28 -16
23 -24 47 -24 84 -1 49 -3 52 -40 69 -26 13 -36 23 -32 33 19 49 17 62 -10 83
-24 19 -26 24 -15 47 14 31 6 64 -20 82 -36 25 -47 64 -50 175 l-4 108 38 22
c43 25 46 43 18 117 -11 27 -15 50 -10 50 4 0 32 -9 61 -21 29 -11 63 -19 75
-16 15 3 23 -1 23 -9 0 -22 16 -16 27 9 10 20 8 22 -23 23 -71 3 -69 2 -52 22
12 14 13 21 3 40 -7 13 -14 19 -16 13 -5 -15 -57 9 -63 29 -2 8 -4 5 -5 -8 -1
-28 -37 -43 -84 -35 -39 6 -57 33 -57 84 0 27 3 29 22 23 26 -8 107 -11 106
-4 -2 9 15 45 24 50 12 9 14 45 3 47 -5 0 -9 -3 -8 -8 2 -5 -2 -9 -7 -9 -6 0
-10 -6 -10 -13 0 -31 -70 -62 -85 -37 -3 6 -12 10 -18 10 -7 0 -6 -4 3 -10 8
-5 10 -10 4 -10 -6 0 -21 9 -34 20 -13 11 -20 20 -16 20 13 0 -20 28 -38 31
-9 2 -16 8 -14 14 2 5 8 9 13 7 6 -2 0 6 -12 17 -26 25 -57 28 -96 12 -16 -6
-42 -11 -58 -11 -18 0 -28 -4 -24 -10 4 -6 21 -8 40 -4 19 3 35 1 39 -5 4 -6
-1 -12 -11 -13 -10 -1 9 -4 42 -7 46 -5 61 -10 63 -23 2 -11 -3 -18 -11 -18
-8 0 -28 -7 -43 -16 -28 -14 -26 -15 39 -8 64 6 67 5 67 -15 0 -11 -6 -21 -14
-21 -7 0 -27 -7 -42 -16 l-29 -15 34 3 c21 2 36 -2 38 -9 3 -7 -3 -13 -14 -13
-15 0 -16 -2 -3 -10 12 -8 11 -10 -7 -10 -13 0 -31 -8 -41 -18 -11 -11 -31
-17 -55 -17 -42 2 -40 -5 6 -21 20 -7 30 -17 27 -25 -14 -44 12 -140 52 -192
11 -15 20 -17 55 -9 41 9 42 9 52 -21 6 -16 11 -57 11 -91 1 -34 8 -79 16
-101 19 -49 27 -98 15 -91 -13 8 -39 -25 -46 -59 l-7 -30 21 25 c20 25 21 25
21 3 0 -12 -12 -34 -26 -50 -21 -22 -27 -25 -34 -13 -6 8 -10 10 -10 4 0 -5 5
-15 12 -22 9 -9 6 -16 -10 -30 -12 -11 -22 -24 -22 -29 0 -14 -51 -59 -90 -78
-63 -33 -127 -44 -186 -35 -106 17 -162 64 -171 144 -2 22 -9 51 -16 64 -8 17
-8 25 1 34 9 9 12 8 12 -5 0 -10 7 -20 15 -23 8 -4 15 -12 15 -20 0 -8 5 -14
11 -14 7 0 9 10 5 26 -5 17 0 34 13 52 l19 27 -34 30 c-37 32 -44 56 -16 53
33 -3 175 2 171 6 -2 2 -27 6 -56 10 -64 7 -96 19 -120 44 -18 20 -33 25 -67
23 -11 -1 -16 -6 -13 -15 3 -8 1 -17 -6 -19 -8 -3 -3 -14 12 -31 27 -29 45
-118 27 -136 -17 -17 -30 -11 -61 33 -41 58 -55 93 -55 139 0 37 -30 95 -43
82 -3 -3 -8 13 -12 35 -4 23 -13 42 -23 46 -15 5 -14 9 8 25 l25 18 -30 8 -30
8 35 7 c27 6 22 7 -21 5 -42 -2 -61 -8 -77 -24 -12 -12 -27 -22 -32 -22 -21 0
-9 20 27 45 21 14 31 25 23 25 -13 0 -13 2 0 10 11 7 5 10 -23 10 -21 0 -36
-4 -33 -8 3 -5 -10 -16 -29 -25 -19 -9 -35 -21 -35 -26 0 -5 -6 -11 -14 -14
-27 -10 -11 30 24 59 65 55 204 84 186 39 -3 -9 1 -15 9 -15 8 0 14 -5 12 -11
-1 -6 7 -13 18 -14 11 -1 27 -5 35 -9 21 -9 55 17 45 33 -4 8 -19 11 -39 7
-17 -3 -38 -1 -46 4 -8 5 -12 10 -8 10 18 0 -28 40 -46 40 -11 0 -16 3 -13 7
4 3 1 13 -6 21 -10 13 -9 14 3 7 12 -6 13 -5 3 6 -7 7 -13 21 -13 31 0 15 6
17 48 11 26 -3 48 -10 50 -15 5 -13 40 -10 45 5 4 9 8 8 16 -3 9 -12 11 -11
11 9 0 17 3 21 13 13 15 -12 43 -9 87 11 34 16 35 16 8 17 -16 0 -28 -4 -28
-10 0 -5 -16 -10 -35 -10 -19 0 -35 4 -35 8 0 17 37 42 54 36 11 -4 16 -1 16
10 0 9 4 16 10 16 5 0 7 -7 4 -15 -4 -11 1 -15 17 -15 13 0 29 -4 36 -8 13 -8
5 -62 -9 -62 -6 0 -5 -7 2 -15 13 -16 13 -16 -19 -79 -2 -5 2 -7 10 -4 12 5
13 -6 8 -66 -4 -39 -11 -83 -17 -98 -15 -36 -5 -81 22 -106 34 -33 149 -30
177 4 9 11 6 14 -19 14 -61 0 -68 43 -47 322 5 72 -12 145 -38 159 -9 5 -14
30 -16 71 -2 48 -7 67 -22 81 -18 17 -22 17 -37 4 -13 -11 -32 -14 -74 -11
-48 4 -57 2 -61 -13 -4 -17 -5 -17 -6 0 -1 12 -9 17 -30 17 -27 0 -28 1 -18
25 7 14 15 25 20 25 4 0 16 9 27 20 15 15 16 20 6 20 -19 0 -30 53 -17 78 6
11 8 22 5 25 -3 3 5 3 18 0 18 -4 20 -3 8 6 -16 11 -13 13 35 16 17 1 34 -3
38 -9 5 -6 5 0 2 13 -5 16 -4 21 4 17 6 -4 11 -14 11 -22 0 -8 5 -12 10 -9 6
3 10 -1 10 -10 0 -10 5 -13 12 -9 6 4 16 0 22 -8 6 -8 26 -22 43 -32 29 -14
76 -82 78 -111 1 -16 45 -7 72 15 14 11 40 22 59 26 25 4 34 11 34 26 0 10 11
30 24 43 28 28 40 75 20 75 -8 0 -14 7 -14 15 0 8 7 15 15 15 8 0 15 9 15 20
0 24 13 25 128 6 55 -9 80 -10 73 -3 -13 13 -14 37 -2 37 13 0 22 -43 11 -54
-19 -19 -11 -53 12 -60 30 -7 42 6 32 35 -4 13 -8 32 -9 41 0 9 -3 19 -6 22
-3 4 -4 22 -2 41 2 26 0 35 -11 35 -8 0 -18 5 -22 11 -4 7 0 9 13 5 13 -4 25
0 34 10 13 15 11 17 -19 12 -17 -2 -32 -3 -32 -1 0 12 31 33 47 32 16 0 16 -1
-2 -9 -19 -8 -19 -9 3 -9 12 -1 22 4 22 9 0 6 7 10 15 10 8 0 15 -4 15 -10 0
-5 5 -10 11 -10 5 0 7 4 4 10 -4 6 3 9 17 7 17 -1 24 4 29 28 6 28 8 29 14 5
1 -5 3 -11 5 -12 1 -2 3 -12 5 -23 1 -11 6 -29 10 -39 6 -14 5 -17 -3 -12 -8
5 -10 2 -5 -10 5 -14 8 -13 19 7 20 35 17 50 -16 102 -16 26 -30 60 -30 75 0
44 -19 99 -44 129 -13 15 -26 45 -30 65 -4 22 -17 45 -32 57 -14 11 -27 28
-28 38 -1 10 -19 26 -40 37 -39 19 -153 46 -161 38z m65 -26 c0 -2 -8 -10 -17
-17 -16 -13 -17 -12 -4 4 13 16 21 21 21 13z m167 -371 c0 -8 -4 -15 -9 -15
-4 0 -8 7 -8 15 0 8 4 15 8 15 5 0 9 -7 9 -15z m-47 -81 c0 -8 -5 -12 -10 -9
-6 4 -8 11 -5 16 9 14 15 11 15 -7z m-451 -178 c-2 -2 -15 -9 -29 -15 -24 -11
-24 -11 -6 3 16 13 49 24 35 12z m-665 -101 c-10 -8 -23 -14 -29 -14 -5 -1 1
8 15 19 14 10 27 17 29 14 3 -2 -4 -11 -15 -19z m46 -26 c0 -5 5 -7 10 -4 6 3
10 2 10 -4 0 -20 -34 -30 -53 -16 -18 13 -18 14 0 24 23 13 33 14 33 0z m760
-8 c0 -13 -29 -35 -37 -28 -7 8 15 37 28 37 5 0 9 -4 9 -9z m-712 -41 c3 -18
-56 -56 -68 -44 -12 12 31 65 50 61 8 -1 16 -9 18 -17z m162 -85 c0 -8 -4 -15
-10 -15 -5 0 -7 7 -4 15 4 8 8 15 10 15 2 0 4 -7 4 -15z m310 -16 c0 -5 -4 -9
-10 -9 -5 0 -10 7 -10 16 0 8 5 12 10 9 6 -3 10 -10 10 -16z m-95 -9 c15 -6
11 -7 -17 -7 -21 1 -38 5 -38 9 0 10 29 9 55 -2z m-228 -52 c-2 -13 -4 -5 -4
17 -1 22 1 32 4 23 2 -10 2 -28 0 -40z m214 -2 c-1 -3 -4 -6 -8 -7 -5 0 -14
-5 -20 -11 -9 -7 -13 -7 -13 0 0 6 8 15 17 21 18 9 25 8 24 -3z m106 -18 c-3
-7 -5 -2 -5 12 0 14 2 19 5 13 2 -7 2 -19 0 -25z m-64 8 c4 -10 1 -13 -8 -9
-8 3 -12 9 -9 14 7 12 11 11 17 -5z m587 -30 c0 -3 -4 -8 -10 -11 -5 -3 -10
-1 -10 4 0 6 5 11 10 11 6 0 10 -2 10 -4z m-690 -116 c0 -5 -4 -10 -10 -10 -5
0 -10 5 -10 10 0 6 5 10 10 10 6 0 10 -4 10 -10z m515 -23 c-11 -8 -29 -17
-40 -20 -17 -6 -17 -4 4 13 13 11 30 20 39 20 13 0 13 -3 -3 -13z m9 -119 c-5
-8 0 -7 11 2 17 13 18 13 13 -1 -4 -9 -1 -16 8 -16 7 0 11 4 8 9 -3 4 7 8 21
8 17 0 24 -4 19 -12 -4 -6 -3 -8 4 -5 15 10 42 -3 42 -20 0 -16 -94 -63 -127
-63 -28 0 -57 52 -49 86 5 17 13 24 32 24 17 0 23 -4 18 -12z m-800 -144 c3
-8 2 -12 -4 -9 -6 3 -10 10 -10 16 0 14 7 11 14 -7z m-29 -5 c11 -17 0 -20
-21 -4 -17 13 -17 14 -2 15 9 0 20 -5 23 -11z m975 -294 c-6 -7 -15 -26 -20
-42 -7 -25 -8 -25 -9 -5 -1 12 6 34 15 47 11 17 12 25 5 25 -7 0 -9 5 -5 11 5
8 10 6 16 -5 6 -11 6 -22 -2 -31z"/>
<path d="M529 1253 c-13 -16 -12 -17 4 -4 9 7 17 15 17 17 0 8 -8 3 -21 -13z"/>
<path d="M683 2080 c1 -11 2 -20 3 -20 16 0 32 15 27 26 -8 21 -32 17 -30 -6z"/>
<path d="M622 2081 c-21 -13 -4 -40 21 -33 34 8 46 42 16 42 -6 0 -8 -4 -4 -9
3 -5 1 -12 -4 -15 -5 -4 -11 0 -13 9 -2 9 -8 11 -16 6z"/>
<path d="M586 2072 c-2 -4 -1 -14 5 -22 5 -8 9 -25 9 -37 0 -12 4 -24 9 -28
13 -7 8 34 -7 61 -6 12 -8 24 -5 28 3 3 4 6 0 6 -3 0 -8 -4 -11 -8z"/>
<path d="M1148 2073 c17 -2 47 -2 65 0 17 2 3 4 -33 4 -36 0 -50 -2 -32 -4z"/>
<path d="M540 2055 c0 -8 -8 -15 -17 -15 -15 0 -16 2 -3 10 9 6 10 10 3 10
-17 0 -27 -20 -16 -31 6 -6 22 -7 37 -3 19 5 24 10 16 19 -5 6 -7 15 -3 18 3
4 1 7 -5 7 -7 0 -12 -7 -12 -15z"/>
<path d="M1133 2053 c9 -2 23 -2 30 0 6 3 -1 5 -18 5 -16 0 -22 -2 -12 -5z"/>
<path d="M1138 2033 c12 -2 32 -2 45 0 12 2 2 4 -23 4 -25 0 -35 -2 -22 -4z"/>
<path d="M560 2006 c0 -8 5 -18 10 -21 6 -3 10 3 10 14 0 12 -4 21 -10 21 -5
0 -10 -6 -10 -14z"/>
<path d="M1118 2013 c7 -3 16 -2 19 1 4 3 -2 6 -13 5 -11 0 -14 -3 -6 -6z"/>
<path d="M487 2003 c-2 -5 -1 -17 3 -27 6 -19 7 -19 12 2 6 21 -6 40 -15 25z"/>
<path d="M517 1995 c-7 -16 8 -29 23 -20 15 9 12 35 -4 35 -8 0 -16 -7 -19
-15z"/>
<path d="M1128 1993 c6 -2 18 -2 25 0 6 3 1 5 -13 5 -14 0 -19 -2 -12 -5z"/>
<path d="M518 1933 c6 -2 18 -2 25 0 6 3 1 5 -13 5 -14 0 -19 -2 -12 -5z"/>
<path d="M1035 1900 c9 -16 11 -30 6 -30 -5 0 -11 5 -13 12 -3 8 -9 8 -23 0
-13 -7 -25 -7 -38 0 -14 7 -17 7 -13 -1 12 -18 -3 -32 -23 -22 -15 8 -16 5
-13 -24 4 -36 20 -45 82 -45 51 0 62 11 59 56 -2 22 0 45 4 51 5 7 -1 16 -12
22 -30 17 -33 13 -16 -19z"/>
<path d="M1118 1923 c6 -2 18 -2 25 0 6 3 1 5 -13 5 -14 0 -19 -2 -12 -5z"/>
<path d="M1113 1903 c9 -2 25 -2 35 0 9 3 1 5 -18 5 -19 0 -27 -2 -17 -5z"/>
<path d="M1113 1883 c9 -2 23 -2 30 0 6 3 -1 5 -18 5 -16 0 -22 -2 -12 -5z"/>
<path d="M1108 1863 c6 -2 18 -2 25 0 6 3 1 5 -13 5 -14 0 -19 -2 -12 -5z"/>
<path d="M599 1844 c-8 -52 -5 -74 12 -90 18 -17 20 -16 34 2 8 10 15 24 15
30 0 13 -60 71 -61 58z"/>
<path d="M1113 1843 c9 -2 25 -2 35 0 9 3 1 5 -18 5 -19 0 -27 -2 -17 -5z"/>
<path d="M1105 1820 c4 -6 11 -8 16 -5 14 9 11 15 -7 15 -8 0 -12 -5 -9 -10z"/>
<path d="M487 1813 c-13 -12 -7 -61 9 -74 13 -10 17 -10 25 2 5 8 9 21 9 30 0
19 -34 52 -43 42z"/>
<path d="M1108 1773 c12 -2 32 -2 45 0 12 2 2 4 -23 4 -25 0 -35 -2 -22 -4z"/>
<path d="M1035 1761 c-3 -5 -1 -12 5 -16 5 -3 10 1 10 9 0 18 -6 21 -15 7z"/>
<path d="M1088 1753 c6 -2 18 -2 25 0 6 3 1 5 -13 5 -14 0 -19 -2 -12 -5z"/>
<path d="M1093 1733 c9 -2 25 -2 35 0 9 3 1 5 -18 5 -19 0 -27 -2 -17 -5z"/>
<path d="M963 1712 c-6 -4 -13 -16 -15 -27 -4 -28 28 -32 37 -5 8 25 -4 43
-22 32z m14 -27 c-4 -8 -11 -15 -17 -15 -7 0 -7 6 0 21 13 23 26 19 17 -6z"/>
<path d="M1206 1703 c-6 -14 -5 -15 5 -6 7 7 10 15 7 18 -3 3 -9 -2 -12 -12z"/>
<path d="M1300 1710 c0 -5 5 -10 11 -10 5 0 7 5 4 10 -3 6 -8 10 -11 10 -2 0
-4 -4 -4 -10z"/>
<path d="M915 1683 l-7 -28 -15 23 c-19 27 -33 28 -33 2 0 -23 -15 -27 -24 -5
-10 26 -26 16 -26 -15 0 -16 -4 -30 -9 -30 -5 0 -8 11 -6 25 2 19 -2 25 -16
25 -13 0 -19 -7 -19 -21 0 -11 4 -18 9 -15 5 3 12 -1 15 -10 4 -11 12 -14 24
-9 9 4 26 8 38 9 11 2 27 7 35 12 8 5 21 9 29 9 8 0 15 5 15 12 0 6 3 15 8 19
10 10 9 24 -2 24 -5 0 -12 -12 -16 -27z m-45 -33 c-24 -15 -36 -11 -14 4 10 8
21 12 24 10 2 -3 -2 -9 -10 -14z"/>
<path d="M1098 1693 c7 -3 16 -2 19 1 4 3 -2 6 -13 5 -11 0 -14 -3 -6 -6z"/>
<path d="M1865 1690 c-3 -6 1 -7 9 -4 18 7 21 14 7 14 -6 0 -13 -4 -16 -10z"/>
<path d="M521 1643 c-18 -46 6 -122 41 -129 7 -2 22 -6 34 -9 15 -5 23 0 32
20 7 14 12 35 12 47 0 21 -76 98 -96 98 -6 0 -17 -12 -23 -27z"/>
<path d="M720 1661 c0 -7 -4 -10 -9 -6 -6 3 -15 -4 -21 -15 -9 -17 -8 -20 8
-20 18 0 38 37 27 49 -3 2 -5 -1 -5 -8z"/>
<path d="M477 1621 c-4 -18 -7 -51 -7 -73 0 -33 3 -39 16 -34 9 3 20 6 25 6 6
0 5 9 -2 21 -6 12 -14 42 -18 68 l-7 46 -7 -34z"/>
<path d="M1166 1613 c-6 -14 -5 -15 5 -6 7 7 10 15 7 18 -3 3 -9 -2 -12 -12z"/>
<path d="M945 1572 c-35 -13 -83 -57 -73 -67 9 -10 113 45 120 64 8 24 7 24
-47 3z"/>
<path d="M1230 1540 c0 -5 5 -10 10 -10 6 0 10 5 10 10 0 6 -4 10 -10 10 -5 0
-10 -4 -10 -10z"/>
<path d="M1659 1535 c-1 -3 -1 -16 -1 -30 0 -14 0 -29 1 -33 1 -5 21 -9 46
-11 33 -1 45 2 43 11 -2 7 -7 16 -13 20 -6 5 -5 8 3 8 6 0 12 9 12 20 0 17 -7
20 -45 20 -25 0 -45 -2 -46 -5z"/>
<path d="M1440 1408 c0 -12 3 -18 7 -14 11 10 12 36 2 36 -5 0 -9 -10 -9 -22z"/>
<path d="M1474 1395 c-9 -13 -24 -27 -34 -30 -13 -4 -18 -15 -18 -36 1 -32 5
-31 22 3 16 31 46 37 39 8 -4 -17 -8 -19 -15 -8 -7 10 -8 9 -6 -4 2 -9 -7 -25
-20 -36 l-22 -20 25 -4 c23 -5 26 -1 40 45 12 40 12 52 3 59 -11 6 -10 11 0
28 18 29 6 25 -14 -5z"/>
<path d="M1506 1343 c-10 -32 -20 -63 -22 -69 -3 -7 16 -24 41 -39 26 -15 54
-36 63 -47 20 -23 101 -62 152 -73 19 -4 47 -14 62 -21 21 -11 26 -11 23 -2
-3 7 10 59 29 115 18 56 29 100 25 97 -15 -9 -120 27 -113 38 4 7 2 8 -5 4 -6
-4 -25 -4 -43 -1 -23 5 -27 9 -17 16 9 6 4 7 -15 3 -22 -5 -27 -4 -21 6 5 9 4
11 -3 6 -6 -4 -35 0 -64 9 -28 8 -57 15 -63 15 -7 0 -20 -26 -29 -57z m77 -18
c19 -8 38 -11 42 -7 5 4 5 -1 2 -10 -4 -12 -2 -15 9 -11 10 3 14 -2 14 -18 0
-15 -3 -20 -8 -12 -4 7 -31 17 -60 23 -29 7 -52 13 -52 15 0 6 12 35 15 35 1
0 18 -7 38 -15z m207 -65 c24 0 30 -10 20 -35 -8 -19 -8 -19 -18 5 -7 16 -11
19 -11 9 -1 -15 -5 -15 -36 -5 -19 7 -38 15 -41 19 -4 4 -16 7 -26 7 -20 0
-21 2 -12 23 4 13 12 12 55 -4 27 -11 58 -19 69 -19z m-100 -51 c0 -11 7 -19
16 -19 11 0 15 6 11 20 -3 13 0 20 9 20 8 0 14 -4 14 -10 0 -5 8 -10 18 -10 9
-1 26 -6 37 -13 23 -14 32 -39 13 -36 -7 1 -21 -1 -30 -5 -18 -8 -53 16 -41
28 4 3 1 6 -5 6 -6 0 -14 -4 -17 -10 -3 -5 -23 -10 -44 -10 -31 0 -42 5 -56
27 -16 24 -16 26 -1 20 10 -4 19 -1 22 7 8 20 54 8 54 -15z"/>
<path d="M1193 1133 c9 -2 25 -2 35 0 9 3 1 5 -18 5 -19 0 -27 -2 -17 -5z"/>
<path d="M1764 1075 c8 -8 17 -15 19 -15 3 0 7 7 11 15 4 11 -2 15 -20 15 -23
0 -24 -2 -10 -15z"/>
<path d="M1596 1048 c3 -5 10 -6 15 -3 13 9 11 12 -6 12 -8 0 -12 -4 -9 -9z"/>
<path d="M1695 998 c-8 -33 -2 -44 27 -51 13 -2 31 -8 41 -12 29 -12 19 9 -13
27 -17 10 -34 28 -39 40 -9 23 -9 23 -16 -4z"/>
<path d="M1230 990 c20 -13 33 -13 25 0 -3 6 -14 10 -23 10 -15 0 -15 -2 -2
-10z"/>
<path d="M1796 991 c-4 -7 -5 -15 -2 -18 9 -9 19 4 14 18 -4 11 -6 11 -12 0z"/>
<path d="M930 970 c0 -5 5 -10 11 -10 5 0 7 5 4 10 -3 6 -8 10 -11 10 -2 0 -4
-4 -4 -10z"/>
<path d="M725 762 c-5 -4 -11 -13 -13 -20 -2 -10 2 -10 18 0 20 13 27 28 13
28 -5 0 -12 -4 -18 -8z"/>
<path d="M1288 613 c6 -2 18 -2 25 0 6 3 1 5 -13 5 -14 0 -19 -2 -12 -5z"/>
<path d="M1405 500 c-3 -5 0 -10 7 -11 30 -1 -71 -30 -110 -31 -23 -1 -45 -5
-48 -9 -7 -11 104 -1 138 12 28 11 68 -2 68 -22 0 -6 5 -7 10 -4 6 3 10 17 10
31 0 32 -60 59 -75 34z"/>
<path d="M1083 243 c-17 -6 -16 -24 3 -52 13 -18 18 -20 26 -10 6 10 7 7 3 -8
-5 -18 -2 -23 11 -23 10 0 14 3 11 7 -4 3 -2 12 5 20 9 11 5 16 -21 26 -17 6
-31 15 -31 20 0 5 7 6 16 3 10 -4 14 -1 12 6 -5 14 -18 18 -35 11z"/>
</g>
</svg>
